<svg width="95" height="25" viewBox="0 0 95 25" fill="none" xmlns="http://www.w3.org/2000/svg">
<g filter="url(#filter0_i_1234_5081)">
<path d="M0 11C0 4.9249 4.9249 0 11 0H84C90.075 0 95 4.9249 95 11V14C95 20.0751 90.075 25 84 25H11C4.9249 25 0 20.0751 0 14V11Z" fill="#36CA68"/>
</g>
<path d="M23.9999 12.5C24.7378 12.501 25.4595 12.283 26.0735 11.8738C26.6876 11.4645 27.1665 10.8823 27.4495 10.2009C27.7326 9.51939 27.8072 8.76919 27.6638 8.04539C27.5205 7.32149 27.1656 6.65639 26.6442 6.13419C26.1227 5.61209 25.4581 5.25629 24.7344 5.11199C24.0107 4.96769 23.2605 5.04129 22.5787 5.32339C21.8968 5.60559 21.3139 6.08369 20.9039 6.69719C20.4938 7.31069 20.2749 8.03199 20.2749 8.76999C20.2749 9.75839 20.6672 10.7064 21.3656 11.4057C22.0641 12.1051 23.0115 12.4987 23.9999 12.5ZM23.9999 6.03499C24.5403 6.03399 25.0688 6.19339 25.5185 6.49299C25.9682 6.79259 26.3189 7.21889 26.5261 7.71789C26.7334 8.21699 26.7879 8.76629 26.6827 9.29629C26.5775 9.82639 26.3174 10.3133 25.9353 10.6954C25.5532 11.0775 25.0663 11.3376 24.5363 11.4428C24.0062 11.5479 23.4569 11.4935 22.9579 11.2862C22.4588 11.079 22.0325 10.7283 21.7329 10.2786C21.4333 9.82889 21.2739 9.30029 21.2749 8.75999C21.2762 8.03769 21.5637 7.34529 22.0745 6.83459C22.5852 6.32379 23.2776 6.03629 23.9999 6.03499Z" fill="white"/>
<path d="M17.9998 19.945V16.885C18.7718 16.0748 19.7039 15.4342 20.7368 15.0038C21.7698 14.5734 22.881 14.3626 23.9998 14.385C25.5311 14.3644 27.0383 14.7676 28.3548 15.55L29.0298 14.795C27.5247 13.847 25.7785 13.3523 23.9998 13.37C22.6984 13.3368 21.4057 13.5912 20.2139 14.1149C19.0221 14.6387 17.9605 15.4189 17.1048 16.4C17.0381 16.4859 17.0013 16.5912 16.9998 16.7V19.945C16.9931 20.2174 17.0945 20.4813 17.282 20.679C17.4694 20.8767 17.7275 20.9921 17.9998 21H24.1948L23.2448 20L17.9998 19.945Z" fill="white"/>
<path d="M29.9999 19.945V20H28.4249L27.5249 21H29.9999C30.2687 20.9921 30.5238 20.8795 30.7107 20.6861C30.8975 20.4927 31.0013 20.2339 30.9999 19.965V17.1L29.9999 18.215V19.945Z" fill="white"/>
<path d="M32.38 13.31C32.2811 13.222 32.1514 13.1768 32.0192 13.1843C31.8871 13.1918 31.7633 13.2514 31.675 13.35L25.865 19.85L23.265 17.055C23.2223 17.0051 23.1702 16.9641 23.1117 16.9343C23.0532 16.9045 22.9894 16.8866 22.9239 16.8815C22.8584 16.8764 22.7926 16.8842 22.7302 16.9045C22.6677 16.9249 22.6099 16.9573 22.56 17C22.5111 17.0445 22.4716 17.0982 22.4436 17.158C22.4156 17.2179 22.3997 17.2827 22.3969 17.3487C22.3941 17.4148 22.4045 17.4807 22.4273 17.5427C22.4502 17.6047 22.4851 17.6616 22.53 17.71L25.875 21.31L32.42 14C32.5035 13.902 32.5459 13.7755 32.5384 13.647C32.531 13.5184 32.4742 13.3977 32.38 13.31Z" fill="white"/>
<path d="M42.6959 11.736V13.444H45.6639C45.3139 14.606 44.3059 15.306 42.8079 15.306C41.7999 15.306 40.9879 15.012 40.3719 14.41C39.7699 13.808 39.4619 13.038 39.4619 12.114C39.4619 11.176 39.7559 10.406 40.3579 9.80403C40.9599 9.18803 41.7299 8.88003 42.6679 8.88003C43.8299 8.88003 44.8379 9.44003 45.2999 10.238L46.952 9.28603C46.112 7.90003 44.5159 7.00403 42.6819 7.00403C41.2259 7.00403 40.0079 7.49403 39.0139 8.48803C38.0339 9.48203 37.5439 10.686 37.5439 12.114C37.5439 13.528 38.0339 14.732 39.0279 15.726C40.0219 16.706 41.2819 17.196 42.7939 17.196C44.2079 17.196 45.3699 16.762 46.2659 15.894C47.1619 15.026 47.6099 13.892 47.6099 12.492V11.736H42.6959ZM52.9461 7.20003L51.8261 9.11803H53.5621L55.1161 7.20003H52.9461ZM54.2201 10.826C53.6741 10.14 52.9181 9.80403 51.9381 9.80403C51.0001 9.80403 50.2021 10.168 49.5301 10.882C48.8721 11.596 48.5361 12.464 48.5361 13.5C48.5361 14.536 48.8721 15.418 49.5301 16.132C50.2021 16.846 51.0001 17.196 51.9381 17.196C52.9181 17.196 53.6741 16.86 54.2201 16.174V17H56.0261V10H54.2201V10.826ZM50.8881 14.928C50.5241 14.55 50.3421 14.074 50.3421 13.5C50.3421 12.926 50.5241 12.45 50.8881 12.086C51.2521 11.708 51.7141 11.526 52.2741 11.526C52.8341 11.526 53.2961 11.708 53.6601 12.086C54.0381 12.45 54.2201 12.926 54.2201 13.5C54.2201 14.074 54.0381 14.55 53.6601 14.928C53.2961 15.292 52.8341 15.474 52.2741 15.474C51.7141 15.474 51.2521 15.292 50.8881 14.928ZM61.5558 9.80403C60.6038 9.80403 59.9038 10.126 59.4698 10.784V10H57.6638V17H59.4698V13.22C59.4698 12.058 60.0718 11.484 61.0098 11.484C61.8498 11.484 62.3958 11.988 62.3958 12.926V17H64.2018V12.702C64.2018 11.792 63.9498 11.092 63.4458 10.574C62.9558 10.056 62.3258 9.80403 61.5558 9.80403Z" fill="white"/>
<defs>
<filter id="filter0_i_1234_5081" x="0" y="0" width="95" height="29" filterUnits="userSpaceOnUse" color-interpolation-filters="sRGB">
<feFlood flood-opacity="0" result="BackgroundImageFix"/>
<feBlend mode="normal" in="SourceGraphic" in2="BackgroundImageFix" result="shape"/>
<feColorMatrix in="SourceAlpha" type="matrix" values="0 0 0 0 0 0 0 0 0 0 0 0 0 0 0 0 0 0 127 0" result="hardAlpha"/>
<feOffset dy="4"/>
<feGaussianBlur stdDeviation="2"/>
<feComposite in2="hardAlpha" operator="arithmetic" k2="-1" k3="1"/>
<feColorMatrix type="matrix" values="0 0 0 0 0 0 0 0 0 0 0 0 0 0 0 0 0 0 0.09 0"/>
<feBlend mode="normal" in2="shape" result="effect1_innerShadow_1234_5081"/>
</filter>
</defs>
</svg>
