<svg width="25" height="25" viewBox="0 0 25 25" fill="none" xmlns="http://www.w3.org/2000/svg">
<rect x="25" y="25" width="25" height="25" rx="1" transform="rotate(-180 25 25)" fill="white"/>
<path d="M15.3023 18.0104C15.3989 17.914 15.4755 17.7996 15.5278 17.6736C15.58 17.5475 15.6069 17.4125 15.6069 17.276C15.6069 17.1396 15.58 17.0045 15.5278 16.8785C15.4755 16.7525 15.3989 16.638 15.3023 16.5417L11.2606 12.5L15.3023 8.45832C15.4971 8.26355 15.6065 7.99939 15.6065 7.72395C15.6065 7.4485 15.4971 7.18434 15.3023 6.98957C15.1075 6.7948 14.8434 6.68538 14.5679 6.68538C14.2925 6.68538 14.0283 6.7948 13.8336 6.98957L9.0523 11.7708C8.95574 11.8672 8.87913 11.9817 8.82685 12.1077C8.77458 12.2337 8.74768 12.3688 8.74768 12.5052C8.74768 12.6416 8.77458 12.7767 8.82685 12.9027C8.87913 13.0287 8.95574 13.1432 9.0523 13.2396L13.8336 18.0208C14.2294 18.4167 14.8961 18.4167 15.3023 18.0104Z" fill="#0B176D"/>
</svg>
