<svg width="20" height="21" viewBox="0 0 20 21" fill="none" xmlns="http://www.w3.org/2000/svg">
<path d="M15 5.5H20V15.5H15V17.5C15 17.7652 15.1054 18.0196 15.2929 18.2071C15.4804 18.3946 15.7348 18.5 16 18.5H18V20.5H15.5C14.95 20.5 14 20.05 14 19.5C14 20.05 13.05 20.5 12.5 20.5H10V18.5H12C12.2652 18.5 12.5196 18.3946 12.7071 18.2071C12.8946 18.0196 13 17.7652 13 17.5V3.5C13 3.23478 12.8946 2.98043 12.7071 2.79289C12.5196 2.60536 12.2652 2.5 12 2.5H10V0.5H12.5C13.05 0.5 14 0.95 14 1.5C14 0.95 14.95 0.5 15.5 0.5H18V2.5H16C15.7348 2.5 15.4804 2.60536 15.2929 2.79289C15.1054 2.98043 15 3.23478 15 3.5V5.5ZM0 5.5H11V7.5H2V13.5H11V15.5H0V5.5ZM18 13.5V7.5H15V13.5H18ZM6.5 10.5C6.5 10.1022 6.34196 9.72064 6.06066 9.43934C5.77936 9.15804 5.39782 9 5 9C4.60218 9 4.22064 9.15804 3.93934 9.43934C3.65804 9.72064 3.5 10.1022 3.5 10.5C3.5 10.8978 3.65804 11.2794 3.93934 11.5607C4.22064 11.842 4.60218 12 5 12C5.39782 12 5.77936 11.842 6.06066 11.5607C6.34196 11.2794 6.5 10.8978 6.5 10.5ZM11 9.39C10.39 8.83 9.44 8.88 8.88 9.5C8.32 10.1 8.37 11.05 9 11.61C9.55 12.13 10.43 12.13 11 11.61V9.39Z" fill="#4A4B57"/>
</svg>
