<svg width="55" height="55" viewBox="0 0 55 55" fill="none" xmlns="http://www.w3.org/2000/svg">
<path d="M27.4997 4.5835C14.8634 4.5835 4.58301 14.8639 4.58301 27.5002C4.58301 40.1364 14.8634 50.4168 27.4997 50.4168C40.1359 50.4168 50.4163 40.1364 50.4163 27.5002C50.4163 14.8639 40.1359 4.5835 27.4997 4.5835ZM27.4997 45.8335C17.3911 45.8335 9.16634 37.6087 9.16634 27.5002C9.16634 17.3916 17.3911 9.16683 27.4997 9.16683C37.6082 9.16683 45.833 17.3916 45.833 27.5002C45.833 37.6087 37.6082 45.8335 27.4997 45.8335Z" fill="#47B7FF"/>
<path d="M29.7913 16.0415H25.208V28.4486L32.7545 35.995L35.9949 32.7546L29.7913 26.5511V16.0415Z" fill="#47B7FF"/>
</svg>
