<svg width="25" height="25" viewBox="0 0 25 25" fill="none" xmlns="http://www.w3.org/2000/svg">
<path d="M14.7437 3.48169C15.655 5.63254 11.4762 6.95009 11.0875 8.74279C10.7319 10.3879 13.5633 12.3178 13.5659 12.3178C13.1337 11.6372 12.8191 11.0633 12.3875 10.0018C11.6562 8.20914 16.8432 6.59194 14.7437 3.48169ZM17.5062 6.46779C17.5062 6.46779 13.8526 6.69854 13.6673 9.08794C13.5828 10.152 14.6319 10.7103 14.6625 11.4851C14.6885 12.1169 14.0326 12.6421 14.0326 12.6421C14.0326 12.6421 15.2085 12.4296 15.5764 11.4643C15.9826 10.3931 14.7847 9.66189 14.9062 8.80324C15.0232 7.98359 17.5062 6.46779 17.5062 6.46779V6.46779ZM18.4 11.972C18.0165 11.9544 17.5849 12.0968 17.2014 12.3782C17.958 12.2112 18.6034 12.6857 18.6034 13.2317C18.6034 14.4556 16.8562 15.6081 16.8562 15.6081C16.8562 15.6081 19.5576 15.3058 19.5576 13.2928C19.5576 12.4621 19.0376 12.0025 18.4 11.972V11.972ZM11.2298 11.9928C10.2873 12.0253 8.40625 12.1806 8.40625 12.9067C8.40625 13.9174 12.7885 13.9961 15.9222 13.374C15.9222 13.374 16.775 12.7799 16.9986 12.5615C14.9446 12.9879 10.2548 13.0542 10.2548 12.6831C10.2548 12.3431 11.7576 11.9928 11.7576 11.9928C11.7576 11.9928 11.5444 11.9824 11.2298 11.9928V11.9928ZM10.9451 13.8615C10.4297 13.8615 9.6653 14.2626 9.6653 14.6532C9.6653 15.4404 13.5458 16.0449 16.4097 14.897L15.4139 14.2879C13.4717 14.923 9.8837 14.7117 10.9451 13.8615ZM11.4326 15.6282C10.7293 15.6282 10.275 16.0728 10.275 16.4004C10.275 17.4079 14.4772 17.5074 16.1451 16.4817L15.0889 15.7907C13.8448 16.327 10.7144 16.4056 11.4326 15.6282ZM9.0764 16.5428C7.92915 16.52 7.1875 17.04 7.1875 17.4762C7.1875 19.7993 18.9486 19.6881 18.9486 17.3137C18.9486 16.9204 18.4838 16.7326 18.3187 16.6435C19.2788 18.9133 8.7111 18.7359 8.7111 17.3949C8.7111 17.0907 9.49305 16.7859 10.2139 16.9282L9.60485 16.5824C9.42983 16.557 9.25326 16.5435 9.0764 16.5421V16.5428ZM20.1875 18.1067C18.4 19.8357 13.876 20.4551 9.32015 19.3865C13.8753 21.291 20.1647 20.2315 20.1875 18.1067Z" fill="black"/>
</svg>
