<svg width="55" height="55" viewBox="0 0 55 55" fill="none" xmlns="http://www.w3.org/2000/svg">
<path d="M30.6442 25.2381L32.0512 26.6451L18.2096 40.4868H16.8048V39.0797L30.6465 25.2381H30.6442ZM36.1419 16.0416C35.7409 16.043 35.3566 16.2018 35.0717 16.4839L32.2758 19.2797L38.005 25.0089L40.8008 22.2131C40.9425 22.0717 41.0548 21.9038 41.1315 21.719C41.2082 21.5342 41.2476 21.3361 41.2476 21.136C41.2476 20.9359 41.2082 20.7378 41.1315 20.5529C41.0548 20.3681 40.9425 20.2002 40.8008 20.0589L37.2258 16.4839C37.0843 16.3416 36.9156 16.2291 36.7298 16.1532C36.544 16.0772 36.3449 16.0393 36.1442 16.0416H36.1419ZM30.6419 20.916L13.75 37.8124V43.5416H19.4792L36.3733 26.6451L30.6419 20.916Z" fill="#DC3545"/>
<path d="M43.5413 2.2915H38.958V6.87484H16.0413V2.2915H11.458V6.87484H9.16634C7.95077 6.87484 6.78498 7.35772 5.92543 8.21726C5.06589 9.07681 4.58301 10.2426 4.58301 11.4582V48.1248C4.58301 49.3404 5.06589 50.5062 5.92543 51.3657C6.78498 52.2253 7.95077 52.7082 9.16634 52.7082H45.833C47.0486 52.7082 48.2144 52.2253 49.0739 51.3657C49.9335 50.5062 50.4163 49.3404 50.4163 48.1248V11.4582C50.4163 10.2426 49.9335 9.07681 49.0739 8.21726C48.2144 7.35772 47.0486 6.87484 45.833 6.87484H43.5413V2.2915ZM9.16634 48.1248V11.4582H45.833V48.1248H9.16634Z" fill="#DC3545"/>
</svg>
