<svg width="80" height="80" viewBox="0 0 80 80" fill="none" xmlns="http://www.w3.org/2000/svg">
<path d="M40.2494 48C41.9294 48 42.7694 46.8 43.0194 44.865C43.2194 42.195 44.0094 40.79 47.2544 38.565C50.6194 36.19 52.4994 33.115 52.4994 28.635C52.4994 22.01 47.8994 17.5 41.1894 17.5C36.0894 17.5 32.2294 19.96 30.6894 23.95C30.2228 25.0397 29.9878 26.2146 29.9994 27.4C29.9994 29.365 31.0144 30.6 32.7244 30.6C34.0844 30.6 34.9994 29.865 35.5444 28.05C36.3344 25.09 38.1694 23.475 40.9144 23.475C43.9644 23.475 46.0644 25.705 46.0644 28.895C46.0644 31.71 45.0244 33.32 41.9544 35.52C38.8594 37.685 37.3244 40.09 37.3244 43.72V44.275C37.3244 46.415 38.3644 48 40.2494 48Z" fill="#FFAA01"/>
<path d="M51.3649 12.5649L46.7599 7.84488L50.3349 4.35488L53.4449 7.53988L57.8949 7.48488C59.8211 7.46208 61.7325 7.82467 63.5166 8.55132C65.3007 9.27797 66.9214 10.354 68.2836 11.7162C69.6457 13.0783 70.7218 14.6991 71.4484 16.4832C72.1751 18.2673 72.5377 20.1786 72.5149 22.1049L72.4649 26.5549L75.6449 29.6649C77.0222 31.0107 78.1166 32.6183 78.8638 34.3931C79.611 36.1679 79.9959 38.0742 79.9959 39.9999C79.9959 41.9256 79.611 43.8318 78.8638 45.6066C78.1166 47.3815 77.0222 48.989 75.6449 50.3349L72.4599 53.4449L72.5149 57.8949C72.5377 59.8211 72.1751 61.7325 71.4484 63.5166C70.7218 65.3007 69.6457 66.9214 68.2836 68.2836C66.9214 69.6457 65.3007 70.7218 63.5166 71.4484C61.7325 72.1751 59.8211 72.5377 57.8949 72.5149L53.4449 72.4649L50.3349 75.6449C48.989 77.0222 47.3815 78.1166 45.6066 78.8638C43.8318 79.611 41.9256 79.9959 39.9999 79.9959C38.0742 79.9959 36.1679 79.611 34.3931 78.8638C32.6183 78.1166 31.0107 77.0222 29.6649 75.6449L26.5549 72.4599L22.1049 72.5149C20.1786 72.5377 18.2673 72.1751 16.4832 71.4484C14.6991 70.7218 13.0783 69.6457 11.7162 68.2836C10.354 66.9214 9.27797 65.3007 8.55132 63.5166C7.82467 61.7325 7.46208 59.8211 7.48488 57.8949L7.53488 53.4449L4.35488 50.3349C2.97758 48.989 1.88319 47.3815 1.136 45.6066C0.38881 43.8318 0.00390625 41.9256 0.00390625 39.9999C0.00390625 38.0742 0.38881 36.1679 1.136 34.3931C1.88319 32.6183 2.97758 31.0107 4.35488 29.6649L7.53988 26.5549L7.48488 22.1049C7.46208 20.1786 7.82467 18.2673 8.55132 16.4832C9.27797 14.6991 10.354 13.0783 11.7162 11.7162C13.0783 10.354 14.6991 9.27797 16.4832 8.55132C18.2673 7.82467 20.1786 7.46208 22.1049 7.48488L26.5549 7.53488L29.6649 4.35488C31.0107 2.97758 32.6183 1.88319 34.3931 1.136C36.1679 0.38881 38.0742 0.00390625 39.9999 0.00390625C41.9256 0.00390625 43.8318 0.38881 45.6066 1.136C47.3815 1.88319 48.989 2.97758 50.3349 4.35488L46.7599 7.84488C45.8797 6.94381 44.8282 6.22781 43.6673 5.73896C42.5064 5.25011 41.2595 4.99828 39.9999 4.99828C38.7403 4.99828 37.4933 5.25011 36.3324 5.73896C35.1715 6.22781 34.1201 6.94381 33.2399 7.84488L28.6399 12.5649L22.0399 12.4849C20.7808 12.4708 19.5315 12.7085 18.3656 13.184C17.1996 13.6595 16.1405 14.3633 15.2503 15.2539C14.3602 16.1445 13.657 17.204 13.1821 18.3702C12.7072 19.5364 12.4701 20.7858 12.4849 22.0449L12.5649 28.6349L7.84488 33.2399C6.94381 34.1201 6.22781 35.1715 5.73896 36.3324C5.25011 37.4933 4.99828 38.7403 4.99828 39.9999C4.99828 41.2595 5.25011 42.5064 5.73896 43.6673C6.22781 44.8282 6.94381 45.8797 7.84488 46.7599L12.5649 51.3599L12.4849 57.9599C12.4708 59.219 12.7085 60.4682 13.184 61.6342C13.6595 62.8001 14.3633 63.8593 15.2539 64.7494C16.1445 65.6396 17.204 66.3428 18.3702 66.8177C19.5364 67.2926 20.7858 67.5296 22.0449 67.5149L28.6349 67.4349L33.2399 72.1549C34.1201 73.0559 35.1715 73.772 36.3324 74.2608C37.4933 74.7496 38.7403 75.0015 39.9999 75.0015C41.2595 75.0015 42.5064 74.7496 43.6673 74.2608C44.8282 73.772 45.8797 73.0559 46.7599 72.1549L51.3599 67.4349L57.9599 67.5149C59.219 67.529 60.4682 67.2913 61.6342 66.8157C62.8001 66.3402 63.8593 65.6365 64.7494 64.7459C65.6396 63.8553 66.3428 62.7957 66.8177 61.6295C67.2926 60.4633 67.5296 59.214 67.5149 57.9549L67.4349 51.3649L72.1549 46.7599C73.0559 45.8797 73.772 44.8282 74.2608 43.6673C74.7496 42.5064 75.0015 41.2595 75.0015 39.9999C75.0015 38.7403 74.7496 37.4933 74.2608 36.3324C73.772 35.1715 73.0559 34.1201 72.1549 33.2399L67.4349 28.6399L67.5149 22.0399C67.529 20.7808 67.2913 19.5315 66.8157 18.3656C66.3402 17.1996 65.6365 16.1405 64.7459 15.2503C63.8553 14.3602 62.7957 13.657 61.6295 13.1821C60.4633 12.7072 59.214 12.4701 57.9549 12.4849L51.3649 12.5649Z" fill="#FFAA01"/>
<path d="M35.0049 55C35.0049 53.6739 35.5317 52.4021 36.4693 51.4645C37.407 50.5268 38.6788 50 40.0049 50C41.331 50 42.6027 50.5268 43.5404 51.4645C44.4781 52.4021 45.0049 53.6739 45.0049 55C45.0049 56.3261 44.4781 57.5979 43.5404 58.5355C42.6027 59.4732 41.331 60 40.0049 60C38.6788 60 37.407 59.4732 36.4693 58.5355C35.5317 57.5979 35.0049 56.3261 35.0049 55Z" fill="#FFAA01"/>
</svg>
