<svg width="18" height="18" viewBox="0 0 18 18" fill="none" xmlns="http://www.w3.org/2000/svg">
<path d="M3.75 3.75H5.25V4.5C5.25 5.325 5.925 6 6.75 6H11.25C12.075 6 12.75 5.325 12.75 4.5V3.75H14.25V8.25H15.75V3.75C15.75 2.925 15.075 2.25 14.25 2.25H11.115C10.8 1.38 9.975 0.75 9 0.75C8.025 0.75 7.2 1.38 6.885 2.25H3.75C2.925 2.25 2.25 2.925 2.25 3.75V14.25C2.25 15.075 2.925 15.75 3.75 15.75H7.5V14.25H3.75V3.75ZM9 2.25C9.4125 2.25 9.75 2.5875 9.75 3C9.75 3.4125 9.4125 3.75 9 3.75C8.5875 3.75 8.25 3.4125 8.25 3C8.25 2.5875 8.5875 2.25 9 2.25Z" fill="#202F97"/>
<path d="M15.9675 12.2175L14.0325 10.2825C13.9631 10.2131 13.8806 10.158 13.7899 10.1204C13.6992 10.0828 13.6019 10.0635 13.5037 10.0635C13.4056 10.0635 13.3083 10.0828 13.2176 10.1204C13.1269 10.158 13.0444 10.2131 12.975 10.2825C12.9056 10.3519 12.8505 10.4344 12.8129 10.5251C12.7753 10.6158 12.756 10.713 12.756 10.8112C12.756 10.9094 12.7753 11.0067 12.8129 11.0974C12.8505 11.1881 12.9056 11.2706 12.975 11.34L13.6275 12H9.75C9.3375 12 9 12.3375 9 12.75C9 13.1625 9.3375 13.5 9.75 13.5H13.6275L12.975 14.16C12.8348 14.3002 12.756 14.4904 12.756 14.6887C12.756 14.8871 12.8348 15.0773 12.975 15.2175C13.1152 15.3577 13.3054 15.4365 13.5037 15.4365C13.7021 15.4365 13.8923 15.3577 14.0325 15.2175L15.9675 13.2825C16.26 12.9825 16.26 12.51 15.9675 12.2175Z" fill="#202F97"/>
</svg>
