<svg width="15" height="15" viewBox="0 0 15 15" fill="none" xmlns="http://www.w3.org/2000/svg">
<path d="M10.3555 3.05614L11.944 4.6439L10.3555 3.05614ZM11.377 1.65739L7.08175 5.95265C6.85982 6.17427 6.70846 6.45663 6.64675 6.76415L6.25 8.75015L8.236 8.35265C8.5435 8.29115 8.8255 8.1404 9.0475 7.9184L13.3428 3.62315C13.4718 3.49407 13.5742 3.34084 13.6441 3.1722C13.7139 3.00356 13.7499 2.82281 13.7499 2.64027C13.7499 2.45773 13.7139 2.27698 13.6441 2.10834C13.5742 1.9397 13.4718 1.78647 13.3428 1.65739C13.2137 1.52832 13.0604 1.42594 12.8918 1.35608C12.7232 1.28623 12.5424 1.25027 12.3599 1.25027C12.1773 1.25027 11.9966 1.28623 11.8279 1.35608C11.6593 1.42594 11.5061 1.52832 11.377 1.65739V1.65739Z" stroke="#36CA68" stroke-width="2" stroke-linecap="round" stroke-linejoin="round"/>
<path d="M12.25 10.2502V12.5002C12.25 12.898 12.092 13.2795 11.8107 13.5608C11.5294 13.8421 11.1478 14.0002 10.75 14.0002H2.5C2.10218 14.0002 1.72064 13.8421 1.43934 13.5608C1.15804 13.2795 1 12.898 1 12.5002V4.25015C1 3.85233 1.15804 3.4708 1.43934 3.18949C1.72064 2.90819 2.10218 2.75015 2.5 2.75015H4.75" stroke="#36CA68" stroke-width="2" stroke-linecap="round" stroke-linejoin="round"/>
</svg>
