<svg width="15" height="20" viewBox="0 0 15 20" fill="none" xmlns="http://www.w3.org/2000/svg">
<path d="M14.2695 3.64766L11.3543 0.732031C10.8828 0.263359 10.2461 0 9.58594 0H2.5C1.11914 0 0 1.11914 0 2.5L0.000234375 17.5C0.000234375 18.8805 1.11937 20 2.50023 20H12.5C13.875 20 15 18.875 15 17.5V5.41406C15 4.75391 14.7383 4.11719 14.2695 3.64766ZM13.125 17.5C13.125 17.8452 12.8452 18.125 12.5 18.125H2.50078C2.15555 18.125 1.87578 17.8452 1.87578 17.5L1.875 2.50508C1.875 2.15992 2.15484 1.88008 2.5 1.88008H8.75V5C8.75 5.69023 9.30977 6.25 10 6.25H13.0898V17.5H13.125ZM8.94922 9.11328L7.5 10.9727L6.05078 9.11328C5.73437 8.70312 5.14844 8.62891 4.73828 8.94922C4.32812 9.26562 4.25391 9.85547 4.57422 10.2656L6.3125 12.5L4.57305 14.7363C4.25445 15.1453 4.32891 15.7348 4.73664 16.0523C4.91016 16.1836 5.10938 16.25 5.27734 16.25C5.55688 16.25 5.83398 16.1255 6.01836 15.8887L7.5 14.0273L8.94766 15.8887C9.03552 16.001 9.14779 16.092 9.27596 16.1546C9.40413 16.2171 9.54486 16.2498 9.6875 16.25C9.8877 16.25 10.0902 16.1853 10.2625 16.0523C10.6703 15.7349 10.7445 15.1452 10.4261 14.7362L8.6875 12.5L10.427 10.2637C10.7455 9.85469 10.6711 9.26523 10.2634 8.94766C9.85156 8.62891 9.26562 8.70312 8.94922 9.11328Z" fill="#12AE34"/>
</svg>
