<svg width="19" height="21" viewBox="0 0 19 21" fill="none" xmlns="http://www.w3.org/2000/svg">
<path d="M2 0.5H11C11.5304 0.5 12.0391 0.710714 12.4142 1.08579C12.7893 1.46086 13 1.96957 13 2.5V4.5H11V2.5H2V18.5H11V16.5H13V18.5C13 19.0304 12.7893 19.5391 12.4142 19.9142C12.0391 20.2893 11.5304 20.5 11 20.5H2C1.46957 20.5 0.960859 20.2893 0.585786 19.9142C0.210714 19.5391 0 19.0304 0 18.5V2.5C0 1.96957 0.210714 1.46086 0.585786 1.08579C0.960859 0.710714 1.46957 0.5 2 0.5Z" fill="#FF5151"/>
<path d="M12.09 14.09L13.5 15.5L18.5 10.5L13.5 5.5L12.09 6.91L14.67 9.5H5V11.5H14.67L12.09 14.09Z" fill="#FF5151"/>
</svg>
