<svg width="253" height="26" viewBox="0 0 253 26" fill="none" xmlns="http://www.w3.org/2000/svg">
<g clip-path="url(#clip0_3761_6412)">
<path d="M16.7236 21.2059H8.68L7.25693 24.7728H0L9.25352 4.29596H16.2702L25.5237 24.7728H18.1452L16.7236 21.2059ZM14.757 16.2251L12.7003 11.0754L10.6394 16.232L14.757 16.2251Z" fill="white"/>
<path d="M29.697 4.29596H36.8338V24.7728H29.697V4.29596Z" fill="white"/>
<path d="M46.0717 24.6718C44.4088 24.2927 43.043 23.7812 41.9741 23.1374L44.2725 18.104C45.3379 18.6935 46.4757 19.1509 47.6592 19.4654C48.8285 19.7959 50.0395 19.9677 51.2577 19.9759C52.2464 19.9759 52.952 19.8837 53.3744 19.6992C53.7963 19.5152 54.0094 19.2385 54.0108 18.8691C54.0108 18.4416 53.7248 18.1192 53.1785 17.9006C52.6321 17.682 51.711 17.4523 50.441 17.1991C49.0569 16.9339 47.6931 16.5775 46.3592 16.1324C45.2641 15.7477 44.2864 15.1031 43.5159 14.2577C42.7112 13.3915 42.3083 12.2164 42.3074 10.7323C42.2967 9.47822 42.6873 8.25163 43.4258 7.22083C44.1724 6.16932 45.2865 5.33918 46.7682 4.73041C48.2499 4.12164 50.0491 3.8191 52.1659 3.82279C53.6047 3.82141 55.0393 3.9736 56.4436 4.2766C57.7396 4.54174 58.9881 4.98973 60.1493 5.60621L58.004 10.6092C55.9254 9.59457 53.9594 9.08726 52.1058 9.08726C50.2713 9.08726 49.3545 9.51663 49.3555 10.3754C49.3555 10.7858 49.6272 11.0934 50.1707 11.2982C50.7142 11.503 51.6114 11.722 52.8624 11.9554C54.2479 12.192 55.6128 12.5296 56.9457 12.9654C58.0545 13.3458 59.0485 13.9861 59.839 14.8291C60.6542 15.6869 61.0628 16.8569 61.0647 18.3392C61.0766 19.5885 60.6851 20.8103 59.9448 21.8341C59.1982 22.88 58.0846 23.7102 56.6038 24.3245C55.1231 24.9388 53.3224 25.2455 51.2019 25.2446C49.4746 25.2484 47.7527 25.0562 46.0717 24.6718Z" fill="white"/>
<path d="M94.865 4.29596H102.002V19.4211H111.557V24.7728H94.865V4.29596Z" fill="white"/>
<path d="M118.937 22.6974C117.125 21.0012 116.22 18.6219 116.22 15.5596V4.29596H123.356V15.3576C123.356 16.8583 123.634 17.9508 124.189 18.6353C124.744 19.3197 125.545 19.6605 126.593 19.6577C127.642 19.6577 128.443 19.3169 128.997 18.6353C129.551 17.9536 129.829 16.8611 129.83 15.3576V4.29596H136.838V15.5596C136.838 18.6228 135.932 21.0021 134.12 22.6974C132.309 24.3927 129.779 25.2409 126.53 25.2418C123.283 25.2418 120.751 24.3937 118.937 22.6974Z" fill="white"/>
<path d="M147.424 9.65037H141.226V4.29596H160.757V9.65037H154.557V24.7728H147.42L147.424 9.65037Z" fill="white"/>
<path d="M165.631 4.29596H172.77V24.7728H165.634L165.631 4.29596Z" fill="white"/>
<path d="M184.196 23.8679C182.438 23.0012 180.962 21.6798 179.933 20.0507C178.906 18.4236 178.392 16.5853 178.391 14.5358C178.39 12.4862 178.904 10.6479 179.933 9.02087C180.963 7.39234 182.439 6.07119 184.196 5.20361C186.008 4.28768 188.055 3.82926 190.336 3.82834C192.618 3.82742 194.665 4.28584 196.476 5.20361C198.235 6.07083 199.71 7.39206 200.74 9.02087C201.767 10.6507 202.283 12.4886 202.289 14.5344C202.294 16.5802 201.781 18.4185 200.747 20.0493C199.718 21.6787 198.242 23.0002 196.484 23.8665C194.672 24.7825 192.625 25.2404 190.344 25.2404C188.062 25.2404 186.013 24.7829 184.196 23.8679ZM192.741 19.0254C193.469 18.5938 194.06 17.9762 194.448 17.2406C194.867 16.396 195.084 15.4711 195.084 14.5344C195.084 13.5976 194.867 12.6728 194.448 11.8281C194.059 11.0931 193.468 10.4757 192.741 10.0433C192.011 9.63149 191.182 9.41448 190.337 9.41448C189.493 9.41448 188.663 9.63149 187.934 10.0433C187.203 10.4746 186.609 11.0921 186.217 11.8281C185.799 12.6728 185.581 13.5976 185.581 14.5344C185.581 15.4711 185.799 16.396 186.217 17.2406C186.609 17.9772 187.202 18.5949 187.934 19.0254C188.663 19.4373 189.493 19.6543 190.337 19.6543C191.182 19.6543 192.011 19.4373 192.741 19.0254Z" fill="white"/>
<path d="M228.771 4.29596V24.7728H222.907L214.863 15.471V24.7728H207.908V4.29596H213.772L221.817 13.5991V4.29596H228.771Z" fill="white"/>
<path d="M238.01 24.6718C236.346 24.2927 234.981 23.7812 233.914 23.1374L236.211 18.104C237.276 18.6935 238.414 19.1509 239.597 19.4654C240.767 19.7959 241.978 19.9677 243.196 19.9759C244.184 19.9759 244.89 19.8837 245.314 19.6992C245.743 19.5138 245.949 19.2357 245.949 18.8691C245.949 18.442 245.672 18.1192 245.117 17.9006C244.562 17.682 243.65 17.4482 242.381 17.1991C240.996 16.9339 239.633 16.5775 238.299 16.1324C237.204 15.7477 236.226 15.1031 235.455 14.2577C234.649 13.3915 234.245 12.2164 234.245 10.7323C234.235 9.47798 234.626 8.25119 235.365 7.22083C236.11 6.16932 237.224 5.33918 238.706 4.73041C240.189 4.12164 241.988 3.8191 244.104 3.82279C245.543 3.82141 246.978 3.9736 248.383 4.2766C249.679 4.54214 250.927 4.99012 252.087 5.60621L249.942 10.6092C247.865 9.59457 245.9 9.08726 244.045 9.08726C242.211 9.08726 241.294 9.51663 241.294 10.3754C241.294 10.7858 241.566 11.0934 242.11 11.2982C242.655 11.503 243.551 11.722 244.801 11.9554C246.186 12.192 247.551 12.5296 248.884 12.9654C249.992 13.3459 250.985 13.9862 251.774 14.8291C252.59 15.6869 252.999 16.8569 253 18.3392C253.012 19.5883 252.621 20.8099 251.882 21.8341C251.133 22.88 250.019 23.7102 248.539 24.3245C247.059 24.9388 245.259 25.2455 243.137 25.2446C241.411 25.2471 239.69 25.0549 238.01 24.6718Z" fill="white"/>
<path d="M90.3275 13.0124C90.3275 12.9211 90.3155 12.834 90.314 12.7357C90.314 12.8658 90.314 13 90.314 13.1356C90.3215 13.0927 90.3275 13.0512 90.3275 13.0124Z" fill="white"/>
<path d="M74.4557 25.7675C74.2069 25.7219 73.9537 25.6679 73.6992 25.6057C73.9494 25.6651 74.2012 25.7219 74.4557 25.7675Z" fill="white"/>
<path d="M75.5443 25.9267C75.5087 25.9241 75.4733 25.9195 75.4384 25.9128C75.4746 25.917 75.508 25.9239 75.5443 25.9267Z" fill="white"/>
<path d="M90.2568 11.6676V11.7423C90.2598 11.7175 90.2598 11.6924 90.2568 11.6676Z" fill="white"/>
<path d="M82.9041 1.40292C83.1343 1.51914 83.3632 1.62429 83.5934 1.75988C83.3674 1.63398 83.1372 1.52191 82.9041 1.40292Z" fill="white"/>
<path d="M73.6992 25.6029L73.4217 25.5338C73.5132 25.5614 73.6062 25.5836 73.6992 25.6029Z" fill="white"/>
<path d="M75.4383 25.9128C75.1065 25.8782 74.7804 25.8257 74.4557 25.7745C74.7904 25.8298 75.1165 25.8796 75.4383 25.9128Z" fill="white"/>
<path d="M90.0766 10.1595L90.0094 10.2218C90.1196 10.6989 90.2022 11.1816 90.2568 11.6676C90.2025 11.0215 90.1295 10.4916 90.0766 10.1595Z" fill="white"/>
<path d="M90.2611 11.7423C90.2943 12.0702 90.3072 12.4037 90.3144 12.7371C90.3072 12.3801 90.2885 12.0495 90.2611 11.7423Z" fill="white"/>
<path d="M90.3026 13.3514V12.7358C90.3026 12.4106 90.2854 12.0703 90.2525 11.7451V11.6635C90.1996 11.178 90.1208 10.6954 90.0166 10.2177C86.584 13.6918 83.3374 14.8111 78.9409 16.6623C84.6976 15.5416 87.2977 13.7887 87.2977 13.7887C87.1132 18.2368 83.7222 21.6127 80.7702 22.5051C73.6191 24.6967 70.3997 21.0275 68.1013 18.2354C82.8683 15.4683 88.7236 10.0212 89.6476 8.95032C89.2615 7.79005 88.7016 6.69086 87.9856 5.68787C82.2805 12.1477 64.3599 13.7126 63.5203 13.7721C63.5345 13.8408 63.5403 13.9109 63.5375 13.981C63.6916 15.924 64.2993 17.8079 65.3151 19.4907C66.3308 21.1736 67.728 22.6116 69.4014 23.6964C69.4943 23.76 69.5859 23.8237 69.6788 23.8901C69.849 24.0008 70.0264 24.1045 70.2023 24.2097C70.2853 24.2595 70.3696 24.3135 70.4512 24.3605C70.4991 24.3826 70.5442 24.41 70.5856 24.4421L71.1892 24.7341C71.2192 24.7493 71.2478 24.7576 71.2778 24.7714C71.4209 24.8378 71.5753 24.8973 71.7255 24.9582L71.6483 24.925L71.684 24.9402C71.704 24.9471 71.7241 24.9582 71.7455 24.9651L71.7255 24.9582C71.7999 24.99 71.8685 25.026 71.95 25.055L71.9944 25.0758C72.1014 25.129 72.2135 25.1721 72.329 25.2045C72.3634 25.2211 72.3963 25.2211 72.4306 25.2377C72.4649 25.2543 72.545 25.2723 72.5994 25.2902C72.7252 25.3318 72.8511 25.3691 72.9769 25.4079C73.1028 25.4466 73.263 25.5019 73.4203 25.5462C73.5218 25.5614 73.6048 25.5946 73.7063 25.6112C73.9581 25.6763 74.2098 25.7247 74.4615 25.7731C74.7884 25.8392 75.1188 25.8881 75.4512 25.9198C75.4841 25.9198 75.5184 25.935 75.5513 25.935L76.2235 25.9848C76.3994 25.9959 76.5711 25.9959 76.7413 25.9959H76.9801C77.4421 26.0058 77.9042 25.9915 78.3646 25.953C88.8581 24.9471 90.3612 17.5893 90.3241 13.1398C90.3198 13.2089 90.3098 13.2823 90.3026 13.3514Z" fill="white"/>
<path d="M72.2117 8.38028C72.1976 7.04676 72.2746 5.71379 72.442 4.39008C71.4969 4.45947 70.5482 4.47149 69.6016 4.42605C68.9127 5.70863 68.3385 7.04588 67.8853 8.42317C69.3243 8.5701 70.7761 8.55571 72.2117 8.38028Z" fill="white"/>
<path d="M72.2117 8.38028C72.1976 7.04676 72.2746 5.71379 72.442 4.39008C71.4969 4.45947 70.5482 4.47149 69.6016 4.42605C68.9127 5.70863 68.3385 7.04588 67.8853 8.42317C69.3243 8.5701 70.7761 8.55571 72.2117 8.38028Z" fill="white"/>
<path d="M79.2256 6.62451C80.3025 6.22189 81.4324 5.74318 82.618 5.17592C81.8611 4.02823 80.9699 2.9688 79.9621 2.01862C79.1857 2.51069 78.363 2.93085 77.505 3.27351C78.2011 4.32757 78.778 5.45104 79.2256 6.62451Z" fill="white"/>
<path d="M79.2256 6.62451C80.3025 6.22189 81.4324 5.74318 82.618 5.17592C81.8611 4.02823 80.9699 2.9688 79.9621 2.01862C79.1857 2.51069 78.363 2.93085 77.505 3.27351C78.2011 4.32757 78.778 5.45104 79.2256 6.62451Z" fill="white"/>
<path d="M72.7724 8.30832C74.7533 8.02236 76.6979 7.53733 78.5748 6.86111C78.2324 5.66296 77.7527 4.50557 77.1446 3.41049C75.738 3.91789 74.2667 4.23812 72.771 4.36239C72.6749 5.67607 72.6754 6.9947 72.7724 8.30832Z" fill="white"/>
<path d="M72.7724 8.30832C74.7533 8.02236 76.6979 7.53733 78.5748 6.86111C78.2324 5.66296 77.7527 4.50557 77.1446 3.41049C75.738 3.91789 74.2667 4.23812 72.771 4.36239C72.6749 5.67607 72.6754 6.9947 72.7724 8.30832Z" fill="white"/>
<path d="M73.5204 0.390167C73.0246 0.520223 72.5521 0.666881 72.103 0.830142C72.0801 0.855046 72.0515 0.891019 72.0272 0.91869C72.5069 0.738643 72.9968 0.585278 73.4946 0.459346C73.5046 0.438592 73.5132 0.415071 73.5204 0.390167Z" fill="white"/>
<path d="M72.5679 3.6125C72.7393 2.5273 73.0531 1.4677 73.5018 0.459351C73.004 0.585283 72.5141 0.738648 72.0344 0.918695C71.2886 1.75839 70.6282 2.66558 70.0621 3.62772C70.8969 3.67385 71.7338 3.66876 72.5679 3.6125Z" fill="white"/>
<path d="M72.5679 3.6125C72.7393 2.5273 73.0531 1.4677 73.5018 0.459351C73.004 0.585283 72.5141 0.738648 72.0344 0.918695C71.2886 1.75839 70.6282 2.66558 70.0621 3.62772C70.8969 3.67385 71.7338 3.66876 72.5679 3.6125Z" fill="white"/>
<path d="M71.8342 0.986477C71.8657 0.956039 71.8914 0.9256 71.9229 0.896545C70.4018 1.46199 69.0052 2.30091 67.8067 3.36898L67.9111 3.38558C69.0646 2.37119 70.3922 1.55931 71.8342 0.986477Z" fill="white"/>
<path d="M69.4886 3.59728C70.1914 2.66553 70.9762 1.79433 71.8342 0.993408C70.3922 1.56624 69.0645 2.37812 67.9111 3.39251C68.433 3.48674 68.9595 3.55508 69.4886 3.59728Z" fill="white"/>
<path d="M69.4886 3.59728C70.1914 2.66553 70.9762 1.79433 71.8342 0.993408C70.3922 1.56624 69.0645 2.37812 67.9111 3.39251C68.433 3.48674 68.9595 3.55508 69.4886 3.59728Z" fill="white"/>
<path d="M74.9635 0.121765C74.7146 0.15082 74.4715 0.184026 74.2341 0.219998C74.0224 0.265656 73.8165 0.315465 73.6134 0.366657C73.6083 0.39061 73.6001 0.413851 73.5891 0.435835C74.0529 0.322201 74.5227 0.232603 74.9964 0.167423L74.9635 0.121765Z" fill="white"/>
<path d="M76.8586 2.8972C76.3012 1.94887 75.6801 1.03699 74.9993 0.167419C74.5256 0.232599 74.0558 0.322197 73.5919 0.435832C73.2158 1.45722 72.9681 2.51866 72.8539 3.59728C74.2086 3.48614 75.5494 3.25174 76.8586 2.8972Z" fill="white"/>
<path d="M76.8586 2.8972C76.3012 1.94887 75.6801 1.03699 74.9993 0.167419C74.5256 0.232599 74.0558 0.322197 73.5919 0.435832C73.2158 1.45722 72.9681 2.51866 72.8539 3.59728C74.2086 3.48614 75.5494 3.25174 76.8586 2.8972Z" fill="white"/>
<path d="M66.9757 4.18945C66.331 4.89518 65.7698 5.66831 65.3024 6.49448C65.7997 5.66904 66.3892 4.89887 67.0601 4.19775L66.9757 4.18945Z" fill="white"/>
<path d="M66.9485 8.29311C67.441 6.91862 68.1042 5.60707 68.9237 4.3873C68.3316 4.34718 67.7066 4.28215 67.0644 4.19775C66.3934 4.89887 65.804 5.66904 65.3066 6.49448C65.0764 6.89433 64.8661 7.29279 64.6917 7.68158C65.4196 7.96162 66.1761 8.1666 66.9485 8.29311Z" fill="white"/>
<path d="M66.9485 8.29311C67.441 6.91862 68.1042 5.60707 68.9237 4.3873C68.3316 4.34718 67.7066 4.28215 67.0644 4.19775C66.3934 4.89887 65.804 5.66904 65.3066 6.49448C65.0764 6.89433 64.8661 7.29279 64.6917 7.68158C65.4196 7.96162 66.1761 8.1666 66.9485 8.29311Z" fill="white"/>
<path d="M66.6482 9.21179C66.3649 10.1437 66.1795 11.1009 66.0947 12.0689C65.2723 12.1491 64.3999 12.2307 63.5103 12.2958C63.5406 11.7919 63.5979 11.2899 63.6819 10.7918C63.7163 10.6618 63.7492 10.5151 63.7835 10.3768C63.8836 9.93817 64.0352 9.43455 64.2025 8.91571C65.0421 9.04853 65.8645 9.14677 66.6482 9.21179Z" fill="white"/>
<path d="M66.6482 9.21179C66.3649 10.1437 66.1795 11.1009 66.0947 12.0689C65.2723 12.1491 64.3999 12.2307 63.5103 12.2958C63.5406 11.7919 63.5979 11.2899 63.6819 10.7918C63.7163 10.6618 63.7492 10.5151 63.7835 10.3768C63.8836 9.93817 64.0352 9.43455 64.2025 8.91571C65.0421 9.04853 65.8645 9.14677 66.6482 9.21179Z" fill="white"/>
<path d="M77.4907 0.0498202L77.4306 0.00692961C76.6325 -0.0168791 75.8336 0.0168812 75.0407 0.10793L75.0779 0.149437C75.6809 0.0639646 76.2892 0.0177418 76.8986 0.0110803C77.1017 0.0207653 77.2947 0.0415188 77.4907 0.0498202Z" fill="white"/>
<path d="M79.8205 1.88442C79.0979 1.21143 78.3186 0.597775 77.4907 0.0498069C77.2948 0.0415055 77.1017 0.020752 76.9029 0.020752C76.2935 0.0274134 75.6852 0.0736362 75.0822 0.159109C75.8472 0.995035 76.5521 1.88075 77.1918 2.81002C78.0867 2.5536 78.9646 2.24448 79.8205 1.88442Z" fill="white"/>
<path d="M79.8205 1.88442C79.0979 1.21143 78.3186 0.597775 77.4907 0.0498069C77.2948 0.0415055 77.1017 0.020752 76.9029 0.020752C76.2935 0.0274134 75.6852 0.0736362 75.0822 0.159109C75.8472 0.995035 76.5521 1.88075 77.1918 2.81002C78.0867 2.5536 78.9646 2.24448 79.8205 1.88442Z" fill="white"/>
<path d="M72.3405 11.2249C70.7129 11.5168 68.9366 11.7604 66.9543 11.9873C67.1559 11.0188 67.3733 10.1208 67.6265 9.27685C69.1615 9.36525 70.7018 9.31058 72.2261 9.11359C72.2404 9.99077 72.2904 10.7213 72.3405 11.2249Z" fill="white"/>
<path d="M72.3405 11.2249C70.7129 11.5168 68.9366 11.7604 66.9543 11.9873C67.1559 11.0188 67.3733 10.1208 67.6265 9.27685C69.1615 9.36525 70.7018 9.31058 72.2261 9.11359C72.2404 9.99077 72.2904 10.7213 72.3405 11.2249Z" fill="white"/>
<path d="M83.9195 7.60964C82.6203 8.2902 81.2679 8.87123 79.8749 9.3474C79.7875 8.5765 79.6246 7.81535 79.3886 7.0742C80.5276 6.54791 81.6119 5.91736 82.6266 5.19116C83.1309 5.95863 83.5636 6.76798 83.9195 7.60964Z" fill="white"/>
<path d="M83.9195 7.60964C82.6203 8.2902 81.2679 8.87123 79.8749 9.3474C79.7875 8.5765 79.6246 7.81535 79.3886 7.0742C80.5276 6.54791 81.6119 5.91736 82.6266 5.19116C83.1309 5.95863 83.5636 6.76798 83.9195 7.60964Z" fill="white"/>
<path d="M83.5934 1.75989L83.6346 1.78341L83.5934 1.75989Z" fill="white"/>
<path d="M77.5422 0.0152283L77.6094 0.0553517C79.4507 0.145651 81.2526 0.604519 82.9012 1.40295C81.2439 0.560186 79.413 0.0860759 77.5422 0.0152283Z" fill="white"/>
<path d="M87.2992 4.86046C87.2992 4.94209 86.7271 5.86769 84.8335 7.07416C83.5835 5.12245 82.0411 3.36091 80.2568 1.84705C80.4913 1.70039 80.6858 1.55511 80.876 1.43198C80.6258 1.54543 80.3898 1.65888 80.1609 1.75712C79.3732 1.11785 78.5246 0.552207 77.6266 0.0677795C79.2359 0.143496 80.8174 0.502649 82.2934 1.12759C82.4951 1.20922 82.6953 1.30607 82.8969 1.40431C83.1315 1.51776 83.3675 1.63259 83.602 1.76127C83.6109 1.77076 83.6232 1.77668 83.6364 1.77787C85.0183 2.61137 86.2546 3.65186 87.2992 4.86046Z" fill="white"/>
<path d="M87.2992 4.86046C87.2992 4.94209 86.7271 5.86769 84.8335 7.07416C83.5835 5.12245 82.0411 3.36091 80.2568 1.84705C80.4913 1.70039 80.6858 1.55511 80.876 1.43198C80.6258 1.54543 80.3898 1.65888 80.1609 1.75712C79.3732 1.11785 78.5246 0.552207 77.6266 0.0677795C79.2359 0.143496 80.8174 0.502649 82.2934 1.12759C82.4951 1.20922 82.6953 1.30607 82.8969 1.40431C83.1315 1.51776 83.3675 1.63259 83.602 1.76127C83.6109 1.77076 83.6232 1.77668 83.6364 1.77787C85.0183 2.61137 86.2546 3.65186 87.2992 4.86046Z" fill="white"/>
<path d="M78.9696 9.6338C77.0334 10.2372 75.0607 10.7252 73.0627 11.0948C72.9612 10.3643 72.894 9.68222 72.8282 9.03333C74.8544 8.73986 76.83 8.18132 78.7007 7.37305C78.8942 8.11164 78.9847 8.87198 78.9696 9.6338Z" fill="white"/>
<path d="M78.9696 9.6338C77.0334 10.2372 75.0607 10.7252 73.0627 11.0948C72.9612 10.3643 72.894 9.68222 72.8282 9.03333C74.8544 8.73986 76.83 8.18132 78.7007 7.37305C78.8942 8.11164 78.9847 8.87198 78.9696 9.6338Z" fill="white"/>
<path d="M82.6432 5.16345L82.618 5.1759L82.6432 5.16345Z" fill="white"/>
</g>
<defs>
<clipPath id="clip0_3761_6412">
<rect width="253" height="26" fill="white"/>
</clipPath>
</defs>
</svg>
