<svg width="22" height="22" viewBox="0 0 22 22" fill="none" xmlns="http://www.w3.org/2000/svg">
<path d="M11.0859 14.459C11.0859 14.5535 11.159 14.6309 11.2471 14.6309H15.2217C15.3098 14.6309 15.3828 14.5535 15.3828 14.459V13.4277C15.3828 13.3332 15.3098 13.2559 15.2217 13.2559H11.2471C11.159 13.2559 11.0859 13.3332 11.0859 13.4277V14.459ZM6.89863 14.59L11.0236 11.1311C11.1053 11.0623 11.1053 10.9355 11.0236 10.8668L6.89863 7.40996C6.87373 7.38878 6.84328 7.3752 6.81088 7.37082C6.77849 7.36644 6.74552 7.37144 6.71589 7.38524C6.68625 7.39904 6.6612 7.42105 6.64371 7.44866C6.62621 7.47627 6.61701 7.50833 6.61719 7.54102V8.88809C6.61719 8.93965 6.63867 8.98691 6.67949 9.01914L9.03848 11L6.67949 12.9809C6.66029 12.9969 6.64478 13.017 6.63403 13.0396C6.62328 13.0622 6.61753 13.0869 6.61719 13.1119V14.459C6.61719 14.6051 6.78691 14.6846 6.89863 14.59ZM18.9062 2.40625H3.09375C2.71348 2.40625 2.40625 2.71348 2.40625 3.09375V18.9062C2.40625 19.2865 2.71348 19.5938 3.09375 19.5938H18.9062C19.2865 19.5938 19.5938 19.2865 19.5938 18.9062V3.09375C19.5938 2.71348 19.2865 2.40625 18.9062 2.40625ZM18.0469 18.0469H3.95312V3.95312H18.0469V18.0469Z" fill="black"/>
</svg>
