<svg width="25" height="25" viewBox="0 0 25 25" fill="none" xmlns="http://www.w3.org/2000/svg">
<g clip-path="url(#clip0_528_812)">
<path fill-rule="evenodd" clip-rule="evenodd" d="M18.5381 9.33325C18.5381 9.06804 18.6434 8.81368 18.831 8.62615C19.0185 8.43861 19.2729 8.33325 19.5381 8.33325C19.8033 8.33325 20.0577 8.43861 20.2452 8.62615C20.4327 8.81368 20.5381 9.06804 20.5381 9.33325V16.1009L19.5381 17.6009L18.5381 16.1009V9.33325ZM19.5381 8.99992C19.4497 8.99992 19.3649 9.03504 19.3024 9.09755C19.2399 9.16006 19.2048 9.24485 19.2048 9.33325V15.8989L19.5381 16.3989L19.8714 15.8989V9.33325C19.8714 9.24485 19.8363 9.16006 19.7738 9.09755C19.7113 9.03504 19.6265 8.99992 19.5381 8.99992Z" fill="black"/>
<path fill-rule="evenodd" clip-rule="evenodd" d="M20.2048 10.6667H18.8714V10H20.2048V10.6667ZM9.87142 6.66667C9.69461 6.66667 9.52504 6.7369 9.40001 6.86193C9.27499 6.98695 9.20475 7.15652 9.20475 7.33333V16.6667C9.20475 16.8435 9.27499 17.013 9.40001 17.1381C9.52504 17.2631 9.69461 17.3333 9.87142 17.3333H16.5381C16.7149 17.3333 16.8845 17.2631 17.0095 17.1381C17.1345 17.013 17.2048 16.8435 17.2048 16.6667V7.33333C17.2048 7.15652 17.1345 6.98695 17.0095 6.86193C16.8845 6.7369 16.7149 6.66667 16.5381 6.66667H9.87142ZM8.53809 7.33333C8.53809 6.97971 8.67856 6.64057 8.92861 6.39052C9.17866 6.14048 9.5178 6 9.87142 6H16.5381C16.8917 6 17.2308 6.14048 17.4809 6.39052C17.7309 6.64057 17.8714 6.97971 17.8714 7.33333V16.6667C17.8714 17.0203 17.7309 17.3594 17.4809 17.6095C17.2308 17.8595 16.8917 18 16.5381 18H9.87142C9.5178 18 9.17866 17.8595 8.92861 17.6095C8.67856 17.3594 8.53809 17.0203 8.53809 16.6667V7.33333Z" fill="black"/>
<path fill-rule="evenodd" clip-rule="evenodd" d="M13.2046 9.00008C13.2046 8.91168 13.2397 8.82689 13.3022 8.76438C13.3648 8.70187 13.4495 8.66675 13.538 8.66675H16.2046C16.293 8.66675 16.3778 8.70187 16.4403 8.76438C16.5028 8.82689 16.538 8.91168 16.538 9.00008C16.538 9.08849 16.5028 9.17327 16.4403 9.23578C16.3778 9.2983 16.293 9.33341 16.2046 9.33341H13.538C13.4495 9.33341 13.3648 9.2983 13.3022 9.23578C13.2397 9.17327 13.2046 9.08849 13.2046 9.00008ZM13.2046 10.3334C13.2046 10.245 13.2397 10.1602 13.3022 10.0977C13.3648 10.0352 13.4495 10.0001 13.538 10.0001H16.2046C16.293 10.0001 16.3778 10.0352 16.4403 10.0977C16.5028 10.1602 16.538 10.245 16.538 10.3334C16.538 10.4218 16.5028 10.5066 16.4403 10.5691C16.3778 10.6316 16.293 10.6667 16.2046 10.6667H13.538C13.4495 10.6667 13.3648 10.6316 13.3022 10.5691C13.2397 10.5066 13.2046 10.4218 13.2046 10.3334ZM13.2046 13.3334C13.2046 13.245 13.2397 13.1602 13.3022 13.0977C13.3648 13.0352 13.4495 13.0001 13.538 13.0001H16.2046C16.293 13.0001 16.3778 13.0352 16.4403 13.0977C16.5028 13.1602 16.538 13.245 16.538 13.3334C16.538 13.4218 16.5028 13.5066 16.4403 13.5691C16.3778 13.6316 16.293 13.6667 16.2046 13.6667H13.538C13.4495 13.6667 13.3648 13.6316 13.3022 13.5691C13.2397 13.5066 13.2046 13.4218 13.2046 13.3334ZM13.2046 14.6667C13.2046 14.5783 13.2397 14.4936 13.3022 14.431C13.3648 14.3685 13.4495 14.3334 13.538 14.3334H16.2046C16.293 14.3334 16.3778 14.3685 16.4403 14.431C16.5028 14.4936 16.538 14.5783 16.538 14.6667C16.538 14.7552 16.5028 14.8399 16.4403 14.9025C16.3778 14.965 16.293 15.0001 16.2046 15.0001H13.538C13.4495 15.0001 13.3648 14.965 13.3022 14.9025C13.2397 14.8399 13.2046 14.7552 13.2046 14.6667ZM10.538 13.3334V14.3334H11.538V13.3334H10.538ZM10.2046 12.6667H11.8713C11.9597 12.6667 12.0445 12.7019 12.107 12.7644C12.1695 12.8269 12.2046 12.9117 12.2046 13.0001V14.6667C12.2046 14.7552 12.1695 14.8399 12.107 14.9025C12.0445 14.965 11.9597 15.0001 11.8713 15.0001H10.2046C10.1162 15.0001 10.0314 14.965 9.96891 14.9025C9.9064 14.8399 9.87128 14.7552 9.87128 14.6667V13.0001C9.87128 12.9117 9.9064 12.8269 9.96891 12.7644C10.0314 12.7019 10.1162 12.6667 10.2046 12.6667V12.6667ZM12.4403 8.76441C12.5028 8.82692 12.5379 8.91169 12.5379 9.00008C12.5379 9.08847 12.5028 9.17324 12.4403 9.23575L10.8713 10.8047L9.96895 9.90241C9.93711 9.87167 9.91172 9.83488 9.89425 9.79422C9.87678 9.75355 9.86758 9.70981 9.8672 9.66555C9.86682 9.62129 9.87525 9.5774 9.89201 9.53643C9.90877 9.49546 9.93352 9.45825 9.96482 9.42695C9.99612 9.39565 10.0333 9.3709 10.0743 9.35414C10.1153 9.33738 10.1592 9.32895 10.2034 9.32933C10.2477 9.32972 10.2914 9.33891 10.3321 9.35638C10.3728 9.37385 10.4095 9.39924 10.4403 9.43108L10.8713 9.86208L11.969 8.76441C12.0315 8.70192 12.1162 8.66682 12.2046 8.66682C12.293 8.66682 12.3778 8.70192 12.4403 8.76441V8.76441Z" fill="black"/>
</g>
<defs>
<clipPath id="clip0_528_812">
<rect width="15" height="15" fill="white" transform="translate(7 5)"/>
</clipPath>
</defs>
</svg>
