<svg width="38" height="47" viewBox="0 0 38 47" fill="none" xmlns="http://www.w3.org/2000/svg">
<path d="M16.2637 13.3481L15.7526 15.4335H13.2982L13.0645 15.4495C12.653 15.506 12.2759 15.7096 12.0029 16.0226C11.7299 16.3356 11.5795 16.7369 11.5795 17.1522L11.5955 17.386C11.652 17.7975 11.8556 18.1746 12.1686 18.4476C12.4816 18.7206 12.8829 18.871 13.2982 18.871H14.9093L14.0201 22.5056L12.1959 22.5079L11.9622 22.5239C11.5507 22.5804 11.1736 22.784 10.9006 23.097C10.6276 23.41 10.4772 23.8113 10.4772 24.2266L10.4932 24.4604C10.5497 24.8718 10.7533 25.249 11.0663 25.5219C11.3793 25.7949 11.7806 25.9454 12.1959 25.9454H13.1791L12.8972 27.105L12.856 27.3341C12.8125 27.7477 12.9204 28.163 13.1598 28.503C13.3991 28.8431 13.7536 29.0849 14.1576 29.1835L14.3868 29.2247C14.8004 29.2682 15.2157 29.1603 15.5557 28.9209C15.8958 28.6816 16.1375 28.3271 16.2362 27.9231L16.7174 25.9431H20.2443L19.9739 27.1302L19.9372 27.3593C19.8996 27.7737 20.0136 28.1877 20.258 28.5244C20.5024 28.8611 20.8607 29.0978 21.2664 29.1904L21.4955 29.227C21.9099 29.2647 22.3239 29.1507 22.6606 28.9062C22.9973 28.6618 23.234 28.3035 23.3266 27.8979L23.7712 25.9431L25.9253 25.9454L26.1591 25.9293C26.571 25.8734 26.9486 25.67 27.2221 25.3569C27.4955 25.0439 27.6463 24.6423 27.6464 24.2266L27.6303 23.9929C27.5738 23.5814 27.3703 23.2043 27.0573 22.9313C26.7442 22.6583 26.343 22.5079 25.9276 22.5079H24.5595L25.3914 18.871H27.0414L27.2751 18.855C27.6866 18.7985 28.0637 18.5949 28.3367 18.2819C28.6097 17.9689 28.7601 17.5676 28.7601 17.1522L28.7441 16.9208C28.6881 16.5089 28.4847 16.1312 28.1717 15.8578C27.8586 15.5843 27.457 15.4336 27.0414 15.4335H26.1797L26.4776 14.141L26.5143 13.9118C26.5513 13.4978 26.4371 13.0844 26.1927 12.7482C25.9483 12.4119 25.5903 12.1756 25.1851 12.0831L24.956 12.0464C24.5419 12.0094 24.1285 12.1236 23.7923 12.368C23.456 12.6124 23.2198 12.9703 23.1272 13.3756L22.6528 15.4335H19.2887L19.6003 14.1662L19.6416 13.937C19.6892 13.5024 19.5694 13.066 19.3066 12.7167C19.0438 12.3673 18.6577 12.1312 18.227 12.0564C17.7962 11.9816 17.3532 12.0738 16.988 12.3142C16.6228 12.5546 16.363 12.9251 16.2614 13.3504L16.2637 13.3481ZM18.4499 18.871H21.8645L21.0349 22.5056H17.5607L18.4499 18.871ZM5.89616 0.583496C4.37669 0.583496 2.91945 1.1871 1.84503 2.26153C0.770599 3.33596 0.166992 4.79319 0.166992 6.31266V40.6877C0.166992 42.2071 0.770599 43.6644 1.84503 44.7388C2.91945 45.8132 4.37669 46.4168 5.89616 46.4168H36.2607C36.7166 46.4168 37.1538 46.2357 37.4761 45.9134C37.7984 45.5911 37.9795 45.1539 37.9795 44.6981C37.9795 44.2422 37.7984 43.8051 37.4761 43.4827C37.1538 43.1604 36.7166 42.9793 36.2607 42.9793H5.89616C5.28837 42.9793 4.70548 42.7379 4.27571 42.3081C3.84594 41.8783 3.60449 41.2954 3.60449 40.6877H36.2607C36.7166 40.6877 37.1538 40.5066 37.4761 40.1842C37.7984 39.8619 37.9795 39.4248 37.9795 38.9689V6.31266C37.9795 5.5603 37.8313 4.8153 37.5434 4.12021C37.2555 3.42511 36.8335 2.79353 36.3015 2.26153C35.7695 1.72953 35.1379 1.30752 34.4428 1.0196C33.7477 0.731685 33.0027 0.583496 32.2503 0.583496H5.89616ZM34.542 37.2502H3.60449V6.31266C3.60449 5.70487 3.84594 5.12198 4.27571 4.69221C4.70548 4.26244 5.28837 4.021 5.89616 4.021H32.2503C32.8581 4.021 33.441 4.26244 33.8708 4.69221C34.3006 5.12198 34.542 5.70487 34.542 6.31266V37.2502Z" fill="#36CA68"/>
</svg>
