<svg width="22" height="22" viewBox="0 0 22 22" fill="none" xmlns="http://www.w3.org/2000/svg">
<path d="M22 10.0425C22 8.9825 20.6727 7.97784 18.6373 7.35517C19.1073 5.28117 18.8987 3.6305 17.9787 3.10184C17.7557 2.97698 17.5034 2.91414 17.248 2.91984V3.6465C17.398 3.6465 17.5187 3.6765 17.62 3.73184C18.0633 3.9865 18.256 4.9545 18.106 6.2005C18.07 6.50717 18.0113 6.82984 17.9393 7.15917C17.2578 6.99493 16.566 6.87622 15.8687 6.80384C15.4532 6.2307 15 5.68593 14.512 5.17317C15.5753 4.18517 16.5733 3.64384 17.252 3.64384V2.9165C16.3547 2.9165 15.1807 3.55584 13.9933 4.6645C12.8067 3.56317 11.632 2.92984 10.7353 2.92984V3.6565C11.4107 3.6565 12.412 4.19517 13.4753 5.1765C13.0187 5.6565 12.562 6.2005 12.128 6.80384C11.4292 6.87542 10.7362 6.99526 10.054 7.1625C9.9819 6.85036 9.92516 6.53487 9.884 6.21717C9.73067 4.9705 9.92 4.0025 10.3607 3.74517C10.458 3.6865 10.5853 3.65984 10.7353 3.65984V2.93317C10.462 2.93317 10.2133 2.99184 9.99867 3.11517C9.082 3.64384 8.87667 5.2905 9.34933 7.3585C7.32067 7.98517 6 8.98584 6 10.0425C6 11.1025 7.32733 12.1072 9.36267 12.7292C8.89267 14.8038 9.10133 16.4545 10.0213 16.9825C10.2333 17.1065 10.4813 17.1652 10.7547 17.1652C11.652 17.1652 12.826 16.5258 14.0133 15.4172C15.2 16.5192 16.374 17.1518 17.2713 17.1518C17.5287 17.1573 17.783 17.0942 18.008 16.9692C18.9247 16.4412 19.13 14.7945 18.6573 12.7265C20.6793 12.1038 22 11.0992 22 10.0425ZM17.7533 7.86717C17.6267 8.30307 17.4798 8.73287 17.3133 9.15517C17.0408 8.62501 16.7415 8.10901 16.4167 7.60917C16.88 7.67784 17.3267 7.7625 17.754 7.86717H17.7533ZM16.26 11.3405C16.0158 11.7668 15.7536 12.1825 15.474 12.5865C14.4955 12.6727 13.5114 12.6739 12.5327 12.5898C11.9713 11.788 11.4804 10.939 11.0653 10.0525C11.4797 9.16391 11.9686 8.31198 12.5267 7.50584C13.5049 7.41942 14.4888 7.41808 15.4673 7.50184C15.738 7.88984 16.0027 8.3045 16.2567 8.74184C16.5047 9.1685 16.73 9.60184 16.9353 10.0392C16.7277 10.4818 16.5024 10.9159 16.26 11.3405V11.3405ZM17.3133 10.9165C17.4893 11.3532 17.64 11.7905 17.7633 12.2145C17.3367 12.3192 16.886 12.4072 16.42 12.4752C16.7435 11.9708 17.0416 11.4506 17.3133 10.9165V10.9165ZM14.0067 14.3965C13.7033 14.0832 13.4 13.7345 13.1 13.3525C13.3933 13.3658 13.6933 13.3758 13.9967 13.3758C14.3033 13.3758 14.6067 13.3692 14.9033 13.3525C14.61 13.7345 14.3067 14.0832 14.0067 14.3965ZM11.58 12.4752C11.1305 12.41 10.6842 12.3242 10.2427 12.2178C10.3633 11.7972 10.5133 11.3632 10.6827 10.9298C10.8167 11.1898 10.9573 11.4512 11.1107 11.7125C11.264 11.9732 11.42 12.2278 11.58 12.4752ZM13.99 5.6885C14.2933 6.00184 14.5967 6.3505 14.8967 6.7325C14.6033 6.71917 14.3033 6.70917 14 6.70917C13.6933 6.70917 13.39 6.71584 13.0933 6.7325C13.3867 6.3505 13.69 6.00184 13.99 5.6885ZM11.5767 7.60984C11.2532 8.11313 10.9551 8.63221 10.6833 9.16517C10.5121 8.74014 10.362 8.30695 10.2333 7.86717C10.66 7.76584 11.1107 7.67784 11.5767 7.60984ZM8.62533 11.6925C7.47067 11.2005 6.724 10.5545 6.724 10.0425C6.724 9.5305 7.47067 8.88117 8.62533 8.3925C8.90533 8.27184 9.212 8.16384 9.52867 8.06317C9.71467 8.70184 9.95933 9.36717 10.262 10.0492C9.97624 10.6906 9.73457 11.3508 9.53867 12.0252C9.22897 11.9293 8.92416 11.8183 8.62533 11.6925V11.6925ZM10.38 16.3525C9.93667 16.0992 9.744 15.1298 9.894 13.8845C9.93 13.5778 9.98867 13.2545 10.0607 12.9252C10.6993 13.0818 11.3973 13.2025 12.1313 13.2812C12.5468 13.8543 13 14.3991 13.488 14.9118C12.4247 15.8998 11.4267 16.4412 10.748 16.4412C10.62 16.4426 10.4936 16.4123 10.38 16.3532V16.3525ZM18.116 13.8678C18.2693 15.1138 18.08 16.0825 17.6393 16.3398C17.542 16.3985 17.4147 16.4245 17.2647 16.4245C16.5893 16.4245 15.588 15.8865 14.5247 14.9045C15.0106 14.3939 15.4608 13.8504 15.872 13.2778C16.5708 13.2063 17.2638 13.0864 17.946 12.9192C18.0213 13.2485 18.0793 13.5645 18.116 13.8678V13.8678ZM19.3713 11.6925C19.0913 11.8132 18.7847 11.9212 18.468 12.0218C18.2687 11.344 18.0236 10.6805 17.7347 10.0358C18.0347 9.35784 18.2753 8.69584 18.458 8.05984C18.7687 8.15605 19.0746 8.26706 19.3747 8.3925C20.5293 8.8845 21.276 9.5305 21.276 10.0425C21.2727 10.5545 20.526 11.2038 19.3713 11.6925V11.6925Z" fill="black"/>
<path d="M13.9965 11.5331C14.3919 11.5331 14.771 11.376 15.0506 11.0965C15.3301 10.8169 15.4872 10.4378 15.4872 10.0424C15.4872 9.64707 15.3301 9.26792 15.0506 8.98836C14.771 8.70881 14.3919 8.55176 13.9965 8.55176C13.6012 8.55176 13.222 8.70881 12.9425 8.98836C12.6629 9.26792 12.5059 9.64707 12.5059 10.0424C12.5059 10.4378 12.6629 10.8169 12.9425 11.0965C13.222 11.376 13.6012 11.5331 13.9965 11.5331V11.5331Z" fill="black"/>
</svg>
