<svg width="20" height="21" viewBox="0 0 20 21" fill="none" xmlns="http://www.w3.org/2000/svg">
<path d="M11.7256 0.5C11.8768 0.500005 12.0241 0.548005 12.1463 0.637089C12.2685 0.726173 12.3593 0.851743 12.4056 0.995714L13.1913 3.43714C13.5213 3.59857 13.837 3.78 14.1384 3.98429L16.647 3.44429C16.7949 3.41271 16.949 3.42889 17.0871 3.49051C17.2252 3.55212 17.3402 3.65599 17.4156 3.78714L19.3956 7.21429C19.4712 7.34537 19.5032 7.49707 19.487 7.64753C19.4708 7.79798 19.4073 7.93941 19.3056 8.05143L17.5841 9.95143C17.6092 10.3158 17.6092 10.6814 17.5841 11.0457L19.3056 12.9486C19.4073 13.0606 19.4708 13.202 19.487 13.3525C19.5032 13.5029 19.4712 13.6546 19.3956 13.7857L17.4156 17.2143C17.34 17.3452 17.2249 17.4488 17.0868 17.5101C16.9487 17.5715 16.7947 17.5874 16.647 17.5557L14.1384 17.0157C13.8384 17.2186 13.5213 17.4014 13.1927 17.5629L12.4056 20.0043C12.3593 20.1483 12.2685 20.2738 12.1463 20.3629C12.0241 20.452 11.8768 20.5 11.7256 20.5H7.76555C7.61433 20.5 7.467 20.452 7.3448 20.3629C7.2226 20.2738 7.13183 20.1483 7.08555 20.0043L6.30127 17.5643C5.97215 17.4033 5.65471 17.2196 5.35126 17.0143L2.84412 17.5557C2.69622 17.5873 2.5421 17.5711 2.40398 17.5095C2.26586 17.4479 2.15086 17.344 2.07555 17.2129L0.0955509 13.7857C0.0199431 13.6546 -0.0120821 13.5029 0.00409321 13.3525C0.0202685 13.202 0.0838083 13.0606 0.185551 12.9486L1.90698 11.0457C1.88204 10.6823 1.88204 10.3177 1.90698 9.95429L0.185551 8.05143C0.0838083 7.93941 0.0202685 7.79798 0.00409321 7.64753C-0.0120821 7.49707 0.0199431 7.34537 0.0955509 7.21429L2.07555 3.78571C2.15107 3.65482 2.26616 3.55125 2.40426 3.4899C2.54237 3.42855 2.69637 3.41258 2.84412 3.44429L5.35126 3.98571C5.65412 3.78143 5.97127 3.59714 6.30127 3.43571L7.08698 0.995714C7.1331 0.852207 7.22345 0.726969 7.34508 0.637929C7.4667 0.548888 7.61339 0.500608 7.76412 0.5H11.7241H11.7256ZM11.2027 1.92857H8.28841L7.47698 4.45286L6.92984 4.72C6.66086 4.85162 6.40121 5.0015 6.15269 5.16857L5.64698 5.51143L3.05269 4.95143L1.59555 7.47714L3.37412 9.44571L3.33127 10.0514C3.31074 10.3501 3.31074 10.6499 3.33127 10.9486L3.37412 11.5543L1.59269 13.5229L3.05127 16.0486L5.64555 15.49L6.15127 15.8314C6.39978 15.9985 6.65943 16.1484 6.92841 16.28L7.47555 16.5471L8.28841 19.0714H11.2056L12.0198 16.5457L12.5656 16.28C12.8342 16.1487 13.0934 15.9988 13.3413 15.8314L13.8456 15.49L16.4413 16.0486L17.8984 13.5229L16.1184 11.5543L16.1613 10.9486C16.1819 10.6494 16.1819 10.3492 16.1613 10.05L16.1184 9.44429L17.8998 7.47714L16.4413 4.95143L13.8456 5.50857L13.3413 5.16857C13.0935 5.00116 12.8343 4.85127 12.5656 4.72L12.0198 4.45429L11.2041 1.92857H11.2027ZM9.74555 6.21429C10.8822 6.21429 11.9723 6.66582 12.776 7.46954C13.5797 8.27327 14.0313 9.36336 14.0313 10.5C14.0313 11.6366 13.5797 12.7267 12.776 13.5305C11.9723 14.3342 10.8822 14.7857 9.74555 14.7857C8.60891 14.7857 7.51882 14.3342 6.71509 13.5305C5.91137 12.7267 5.45984 11.6366 5.45984 10.5C5.45984 9.36336 5.91137 8.27327 6.71509 7.46954C7.51882 6.66582 8.60891 6.21429 9.74555 6.21429ZM9.74555 7.64286C8.98779 7.64286 8.26106 7.94388 7.72525 8.47969C7.18943 9.01551 6.88841 9.74224 6.88841 10.5C6.88841 11.2578 7.18943 11.9845 7.72525 12.5203C8.26106 13.0561 8.98779 13.3571 9.74555 13.3571C10.5033 13.3571 11.23 13.0561 11.7659 12.5203C12.3017 11.9845 12.6027 11.2578 12.6027 10.5C12.6027 9.74224 12.3017 9.01551 11.7659 8.47969C11.23 7.94388 10.5033 7.64286 9.74555 7.64286Z" fill="#4A4B57"/>
</svg>
