<svg width="25" height="25" viewBox="0 0 25 25" fill="none" xmlns="http://www.w3.org/2000/svg">
<g clip-path="url(#clip0_528_782)">
<path d="M20.6588 5.88494C20.4506 6.38451 20.181 6.85625 19.8563 7.28932C19.1613 6.56945 18.329 5.99635 17.4085 5.60396C16.488 5.21157 15.4982 5.00787 14.4975 5.00492C13.4969 5.00196 12.5059 5.19982 11.5831 5.58677C10.6604 5.97372 9.8246 6.54189 9.12537 7.25765C8.42613 7.9734 7.87763 8.82219 7.51233 9.75374C7.14703 10.6853 6.97237 11.6807 6.99868 12.681C7.025 13.6812 7.25175 14.666 7.66553 15.5771C8.0793 16.4882 8.67168 17.3069 9.40758 17.9849L9.68508 18.2318C10.7393 19.1211 12.019 19.7011 13.3826 19.9078C14.7462 20.1145 16.1404 19.9397 17.4108 19.4029C18.6811 18.866 19.7781 17.9879 20.5802 16.866C21.3823 15.744 21.8581 14.4219 21.9551 13.0462C22.1713 11.1631 21.6001 8.75557 20.6588 5.88494V5.88494ZM10.4876 18.0468C10.4082 18.1442 10.3018 18.2159 10.1818 18.2529C10.0617 18.2899 9.93339 18.2904 9.81301 18.2545C9.69263 18.2186 9.5856 18.1478 9.50542 18.0511C9.42524 17.9544 9.37552 17.8361 9.36252 17.7111C9.34953 17.5862 9.37386 17.4602 9.43242 17.3491C9.49099 17.2379 9.58118 17.1466 9.69159 17.0867C9.802 17.0268 9.92769 17.001 10.0528 17.0124C10.1779 17.0239 10.2968 17.0722 10.3945 17.1512C10.5224 17.2596 10.6036 17.4132 10.6209 17.58C10.6383 17.7468 10.5905 17.9138 10.4876 18.0462V18.0468ZM20.612 15.8087C18.7751 18.2624 14.8245 17.4293 12.3082 17.5524C12.3082 17.5524 11.8607 17.5837 11.4132 17.6449C11.4132 17.6449 11.5832 17.5681 11.7995 17.4906C13.5745 16.8737 14.4076 16.7499 15.4876 16.1943C17.5095 15.1606 19.5313 12.8918 19.9326 10.5456C19.1607 12.7993 16.8151 14.7437 14.6851 15.5306C13.2188 16.0712 10.5801 16.5956 10.5801 16.5956L10.472 16.5337C8.68133 15.6543 8.62008 11.7649 11.892 10.5149C13.327 9.95869 14.6857 10.2681 16.2438 9.89744C17.8957 9.51182 19.8095 8.27682 20.5813 6.65619C21.4451 9.26494 22.4945 13.3081 20.612 15.8087Z" fill="black"/>
</g>
<defs>
<clipPath id="clip0_528_782">
<rect width="15" height="15" fill="white" transform="translate(7 5)"/>
</clipPath>
</defs>
</svg>
