<svg width="24" height="24" viewBox="0 0 24 24" fill="none" xmlns="http://www.w3.org/2000/svg">
<path d="M15.6 7.19998C15.6 8.15475 15.2207 9.07043 14.5456 9.74556C13.8705 10.4207 12.9548 10.8 12 10.8C11.0452 10.8 10.1296 10.4207 9.45444 9.74556C8.77931 9.07043 8.40002 8.15475 8.40002 7.19998C8.40002 6.2452 8.77931 5.32952 9.45444 4.65439C10.1296 3.97926 11.0452 3.59998 12 3.59998C12.9548 3.59998 13.8705 3.97926 14.5456 4.65439C15.2207 5.32952 15.6 6.2452 15.6 7.19998Z" fill="#121843"/>
<path d="M21.6 9.59995C21.6 10.2365 21.3471 10.8469 20.897 11.297C20.447 11.7471 19.8365 12 19.2 12C18.5635 12 17.953 11.7471 17.5029 11.297C17.0528 10.8469 16.8 10.2365 16.8 9.59995C16.8 8.96343 17.0528 8.35298 17.5029 7.90289C17.953 7.45281 18.5635 7.19995 19.2 7.19995C19.8365 7.19995 20.447 7.45281 20.897 7.90289C21.3471 8.35298 21.6 8.96343 21.6 9.59995Z" fill="#121843"/>
<path d="M7.20002 9.59995C7.20002 10.2365 6.94717 10.8469 6.49708 11.297C6.04699 11.7471 5.43654 12 4.80002 12C4.1635 12 3.55306 11.7471 3.10297 11.297C2.65288 10.8469 2.40002 10.2365 2.40002 9.59995C2.40002 8.96343 2.65288 8.35298 3.10297 7.90289C3.55306 7.45281 4.1635 7.19995 4.80002 7.19995C5.43654 7.19995 6.04699 7.45281 6.49708 7.90289C6.94717 8.35298 7.20002 8.96343 7.20002 9.59995Z" fill="#121843"/>
<path d="M19.2 21.6V18C19.2017 16.7799 18.8919 15.5796 18.3 14.5128C18.832 14.3766 19.3881 14.3638 19.9258 14.4752C20.4636 14.5867 20.9687 14.8195 21.4028 15.1559C21.8369 15.4923 22.1884 15.9233 22.4305 16.4162C22.6727 16.9091 22.799 17.4508 22.8 18V21.6H19.2Z" fill="#121843"/>
<path d="M5.70001 14.5128C5.10811 15.5796 4.79833 16.7799 4.80001 18V21.6H1.20001V18C1.19978 17.4504 1.32537 16.9081 1.56715 16.4146C1.80893 15.9211 2.16048 15.4895 2.59487 15.1529C3.02926 14.8162 3.53495 14.5835 4.07318 14.4726C4.61142 14.3616 5.16791 14.3754 5.70001 14.5128Z" fill="#121843"/>
<rect x="7.20001" y="13.2" width="9.6" height="8.4" rx="3" fill="#121843"/>
</svg>
