<svg width="23" height="23" viewBox="0 0 23 23" fill="none" xmlns="http://www.w3.org/2000/svg">
<path d="M22.4375 15.0463H19.4745C19.1604 15.0458 18.8592 14.9208 18.637 14.6986C18.4148 14.4765 18.2898 14.1753 18.2894 13.8611V10.3056C18.2897 9.99132 18.4146 9.69005 18.6368 9.46785C18.859 9.24565 19.1603 9.12068 19.4745 9.12037H22.4375V10.3056H19.4745V13.8611H22.4375V15.0463ZM15.919 9.12037H13.5486V6.75H12.3634V15.0463H15.919C16.2332 15.0458 16.5344 14.9208 16.7565 14.6986C16.9787 14.4765 17.1037 14.1753 17.1042 13.8611V10.3056C17.1039 9.99132 16.9789 9.69005 16.7567 9.46785C16.5345 9.24565 16.2332 9.12068 15.919 9.12037V9.12037ZM13.5486 13.8611V10.3056H15.919V13.8611H13.5486ZM9.99306 9.12037H7.03009V10.3056H9.99306V11.4907H7.62269C7.30835 11.4907 7.0069 11.6156 6.78463 11.8379C6.56237 12.0601 6.4375 12.3616 6.4375 12.6759V13.8611C6.4375 14.1754 6.56237 14.4769 6.78463 14.6992C7.0069 14.9214 7.30835 15.0463 7.62269 15.0463H11.1782V10.3056C11.1779 9.99132 11.053 9.69005 10.8308 9.46785C10.6086 9.24565 10.3073 9.12068 9.99306 9.12037V9.12037ZM9.99306 13.8611H7.62269V12.6759H9.99306V13.8611Z" fill="black"/>
</svg>
