<svg width="95" height="25" viewBox="0 0 95 25" fill="none" xmlns="http://www.w3.org/2000/svg">
<path d="M0 11C0 4.92487 4.92487 0 11 0H84C90.0751 0 95 4.92487 95 11V14C95 20.0751 90.0751 25 84 25H11C4.92487 25 0 20.0751 0 14V11Z" fill="#FF5151"/>
<path d="M18.75 5.5C16.3412 5.5 14.375 7.46625 14.375 9.875C14.375 11.3813 15.1437 12.72 16.3087 13.5081C14.0794 14.4644 12.5 16.675 12.5 19.25H13.75C13.75 16.4813 15.9813 14.25 18.75 14.25C19.61 14.25 20.4088 14.4737 21.1125 14.8562C20.3925 15.7458 19.9998 16.8556 20 18C20 20.7538 22.2462 23 25 23C27.7538 23 30 20.7538 30 18C30 15.2462 27.7538 13 25 13C23.9469 13.0014 22.9212 13.3362 22.07 13.9563C21.7938 13.7831 21.495 13.6375 21.1913 13.5075C21.7861 13.1063 22.2734 12.5654 22.6106 11.9321C22.9477 11.2988 23.1243 10.5925 23.125 9.875C23.125 7.46625 21.1588 5.5 18.75 5.5ZM18.75 6.75C20.4831 6.75 21.875 8.14187 21.875 9.875C21.875 11.6081 20.4831 13 18.75 13C17.0169 13 15.625 11.6081 15.625 9.875C15.625 8.14187 17.0169 6.75 18.75 6.75ZM25 14.25C27.0787 14.25 28.75 15.9213 28.75 18C28.75 20.0787 27.0787 21.75 25 21.75C22.9213 21.75 21.25 20.0787 21.25 18C21.25 15.9213 22.9213 14.25 25 14.25ZM23.575 15.675L22.675 16.575L24.1019 18L22.6769 19.425L23.575 20.325L25 18.8981L26.425 20.3231L27.325 19.425L25.8981 18L27.3231 16.575L26.425 15.675L25 17.1019L23.575 15.6769V15.675Z" fill="white"/>
<path d="M39.5515 11.96L42.3935 7.2H40.2095L38.4595 10.14L36.7095 7.2H34.5255L37.3675 11.974L34.3715 17H36.5555L38.4595 13.808L40.3635 17H42.5615L39.5515 11.96ZM46.2204 9.006H47.9564L49.5104 7.088H47.3404L46.2204 9.006ZM49.5244 16.132C48.8104 16.846 47.9284 17.196 46.8924 17.196C45.8564 17.196 44.9744 16.846 44.2604 16.132C43.5464 15.418 43.1964 14.536 43.1964 13.5C43.1964 12.464 43.5464 11.596 44.2604 10.882C44.9744 10.168 45.8564 9.804 46.8924 9.804C47.9284 9.804 48.8104 10.168 49.5244 10.882C50.2384 11.596 50.6024 12.464 50.6024 13.5C50.6024 14.536 50.2384 15.418 49.5244 16.132ZM45.5344 14.886C45.8984 15.25 46.3464 15.432 46.8924 15.432C47.4384 15.432 47.8864 15.25 48.2504 14.886C48.6144 14.522 48.7964 14.06 48.7964 13.5C48.7964 12.94 48.6144 12.478 48.2504 12.114C47.8864 11.75 47.4384 11.568 46.8924 11.568C46.3464 11.568 45.8984 11.75 45.5344 12.114C45.1844 12.478 45.0024 12.94 45.0024 13.5C45.0024 14.06 45.1844 14.522 45.5344 14.886ZM57.1929 10.826C56.6469 10.14 55.8909 9.804 54.9109 9.804C53.9729 9.804 53.1749 10.168 52.5029 10.882C51.8449 11.596 51.5089 12.464 51.5089 13.5C51.5089 14.536 51.8449 15.418 52.5029 16.132C53.1749 16.846 53.9729 17.196 54.9109 17.196C55.8909 17.196 56.6469 16.86 57.1929 16.174V17H58.9989V10H57.1929V10.826ZM53.8609 14.928C53.4969 14.55 53.3149 14.074 53.3149 13.5C53.3149 12.926 53.4969 12.45 53.8609 12.086C54.2249 11.708 54.6869 11.526 55.2469 11.526C55.8069 11.526 56.2689 11.708 56.6329 12.086C57.0109 12.45 57.1929 12.926 57.1929 13.5C57.1929 14.074 57.0109 14.55 56.6329 14.928C56.2689 15.292 55.8069 15.474 55.2469 15.474C54.6869 15.474 54.2249 15.292 53.8609 14.928Z" fill="white"/>
</svg>
