<svg width="25" height="25" viewBox="0 0 25 25" fill="none" xmlns="http://www.w3.org/2000/svg">
<path d="M17.224 10.1615L14.5834 12.0834L15.625 15.1719C15.6423 15.2307 15.6409 15.2935 15.621 15.3515C15.6012 15.4095 15.5639 15.4599 15.5143 15.4959C15.4646 15.5318 15.405 15.5515 15.3437 15.5523C15.2824 15.553 15.2224 15.5348 15.1719 15.5L12.5 13.6198L9.85419 15.5469C9.82224 15.5694 9.78611 15.5852 9.74793 15.5935C9.70975 15.6017 9.6703 15.6022 9.63192 15.5949C9.59355 15.5876 9.55703 15.5727 9.52453 15.551C9.49203 15.5294 9.46421 15.5014 9.44273 15.4688C9.41928 15.4321 9.4035 15.391 9.39634 15.348C9.38918 15.3051 9.39079 15.2611 9.40106 15.2188L10.4167 12.1354L7.77606 10.2084C7.72611 10.1733 7.68868 10.1231 7.66923 10.0653C7.64978 10.0074 7.64932 9.94481 7.66793 9.88667C7.68653 9.82852 7.72323 9.77784 7.77266 9.74202C7.8221 9.7062 7.88168 9.6871 7.94273 9.68752H11.2084L12.224 6.59898C12.2348 6.53664 12.266 6.47964 12.3127 6.4369C12.3594 6.39416 12.4189 6.36808 12.482 6.36272C12.545 6.35737 12.6081 6.37305 12.6613 6.40731C12.7145 6.44157 12.7548 6.49249 12.7761 6.55211L13.7917 9.63544H17.0573C17.0956 9.63612 17.1334 9.64434 17.1685 9.65962C17.2037 9.67491 17.2354 9.69697 17.262 9.72454C17.2886 9.75211 17.3096 9.78464 17.3236 9.8203C17.3376 9.85595 17.3445 9.89401 17.3438 9.93231C17.344 9.97739 17.3333 10.0218 17.3124 10.0618C17.2915 10.1017 17.2611 10.136 17.224 10.1615Z" stroke="black" stroke-linecap="round" stroke-linejoin="round"/>
<path d="M12.4998 2.34375C12.4998 2.34375 6.63525 3.38542 4.55713 3.38542V13.8021C4.56037 14.5338 4.70174 15.2583 4.9738 15.9375C5.23273 16.6092 5.58327 17.242 6.01546 17.8177C6.45169 18.3957 6.94173 18.9311 7.479 19.4167C7.97509 19.8763 8.49676 20.3075 9.0415 20.7083C9.52659 21.0564 10.029 21.3797 10.5467 21.6771C11.0675 21.9844 11.4373 22.1979 11.6561 22.2969L12.1769 22.5521C12.2778 22.6002 12.3881 22.6252 12.4998 22.6252C12.6116 22.6252 12.7219 22.6002 12.8228 22.5521L13.3436 22.2969C13.5623 22.1927 13.9321 21.9844 14.453 21.6771C14.9707 21.3797 15.4731 21.0564 15.9582 20.7083C16.5029 20.3075 17.0246 19.8763 17.5207 19.4167C18.0579 18.9311 18.548 18.3957 18.9842 17.8177C19.4164 17.242 19.7669 16.6092 20.0259 15.9375C20.2979 15.2583 20.4393 14.5338 20.4425 13.8021V3.38542C18.3644 3.40104 12.4998 2.34375 12.4998 2.34375Z" stroke="black" stroke-linecap="round" stroke-linejoin="round"/>
</svg>
